<?xml version="1.0" encoding="utf-8"?>
<!-- Generator: Adobe Illustrator 21.1.0, SVG Export Plug-In . SVG Version: 6.00 Build 0)  -->
<svg version="1.1" id="Layer_1" xmlns="http://www.w3.org/2000/svg" xmlns:xlink="http://www.w3.org/1999/xlink" x="0px" y="0px"
	 viewBox="0 0 1007 325" style="enable-background:new 0 0 1007 325;" xml:space="preserve">
<style type="text/css">
	.st0{fill:#31B8A3;}
	.st1{fill:#333736;}
	.st2{fill:#32B8A4;}
	.st3{fill:#35B9A5;}
	.st4{fill:#3BBBA7;}
	.st5{fill:#FDFEFE;}
	.st6{fill:none;enable-background:new    ;}
</style>
<g>
	<path class="st0" d="M148,326c-0.1-6.7-2.5-12.9-3.8-19.4c-0.4-1.8-1.6-2.3-3.2-2.5c-3.8-0.6-7.7-0.8-11.2-2.2
		c-5.4-2.2-8.5-0.3-11.4,4.2c-2.5,3.9-4.6,9.4-8.7,10.5c-4.1,1.1-8.4-3.1-12.6-5c-4.9-2.1-9.6-4.5-14.5-6.7c-2.4-1-3.2-2.4-2.4-5
		c1.2-4.1,1.7-8.5,3-12.5c1.2-3.6,0.5-5.9-2.7-7.9c-3.4-2.1-6.6-4.6-9.4-7.4c-2.7-2.6-5-2.6-7.9-0.7c-0.1,0.1-0.3,0.2-0.4,0.2
		c-5,2.1-10.1,7.7-14.5,6.3c-4.4-1.4-7.3-7.8-10.7-12c-2.9-3.5-5.6-7.1-8.5-10.5c-1.6-1.9-1.6-3.3,0-5.2c2.7-3,4.8-6.4,7.7-9.2
		c3.3-3.2,4-6.2,1-9.9c-0.8-1-1.6-2.2-1.9-3.5C34,217.9,27.7,216,18.6,217c-8.7,0.9-8.8,0.2-10.9-8.5c-1.6-6.8-3-13.6-4.9-20.3
		c-0.8-2.8,0-3.8,2.3-4.8c4.4-1.9,8.7-4.2,13.1-6.1c2.1-0.9,3-2.1,2.9-4.5c-0.3-5.2-0.2-10.3,0-15.5c0.1-2.4-0.7-3.6-2.9-4.4
		c-4.5-1.8-8.8-4-13.2-5.9c-2.3-1-3.3-2.2-2.6-4.9c2.1-8.5,3.9-17.1,5.7-25.7c0.5-2.5,1.7-3.6,4.4-3.5c4.7,0.2,9.3-0.1,14,0.1
		c2.8,0.1,4.2-0.8,5.2-3.4c1.9-4.6,4.1-9.1,6.3-13.5c1.1-2.1,1.1-3.5-0.6-5.3c-3.3-3.6-6-7.6-9.3-11.1c-2.1-2.2-1.9-3.6-0.1-5.8
		c5.6-6.8,11.1-13.7,16.5-20.7c1.6-2.1,3-2.6,5.4-1.2c4.2,2.3,8.7,4.2,12.9,6.5c2.1,1.1,3.5,1,5.3-0.6c3.8-3.3,7.6-6.5,11.7-9.3
		c2.4-1.7,2.7-3.5,2-6c-1.2-4.5-2.3-9-3.6-13.5c-0.7-2.4-0.1-4,2.4-5.1c8.1-3.8,16.2-7.7,24.2-11.7c2-1,3.7-1.2,4.9,1.1
		c0.1,0.1,0.2,0.3,0.3,0.4c3.8,4.4,6.1,11.4,11.2,12.9c4.8,1.4,10.8-1.9,16.4-2.9c3.2-0.5,4.9-2,5.3-5.3c0.7-4.4,1.8-8.8,2.6-13.2
		c0.4-2.4,1.4-3.7,4.2-3.5c4.3,0.3,8.7,0.2,13,0c2.5-0.1,3.5,0.6,3.5,3.3c-0.1,17.2-0.1,34.3,0,51.5c0,3.3-1.7,3.2-4,3.3
		c-45.7,1.7-77.9,24-95.4,65.8C42.5,184,78.8,251.5,140.4,264.9c7.2,1.6,14.4,2.4,21.8,2.3c2.6,0,3.9,0.4,3.9,3.5
		c-0.1,17.2-0.1,34.3,0,51.5c0,1.4-0.4,2.6-1.1,3.7C159.3,326,153.7,326,148,326z"/>
	<path class="st1" d="M1008,185c-0.3,0.2-0.7,0.3-0.8,0.5c-4.7,14.2-11.7,19.4-26.8,19.5c-7.5,0.1-15-0.1-22.5,0.1
		c-2.7,0.1-3.8-0.5-3.8-3.5c0.1-25.3,0.1-50.6,0.1-75.9c0-1.8-0.5-3.8,2.5-3.7c9.6,0.4,19.3-0.9,28.9,0.9
		c9.9,1.8,15.4,6.7,17.1,15.1c2.2,10.7-1.1,19.1-10.3,25c9.8,2.4,13.3,9.7,15.5,18.1C1008,182.3,1008,183.7,1008,185z M968.1,180.6
		c0,12.2,0,12.2,12.2,11.3c1.2-0.1,2.3-0.3,3.4-0.6c6-1.5,9-4.5,9.5-9.4c0.8-7.7-4.3-12.4-14.2-12.8c-11-0.5-11-0.5-11,9.6
		C968.1,179.3,968.1,180,968.1,180.6z M968.1,146.2c0,11.7,1.1,12.7,12.6,10.7c0.3-0.1,0.7-0.1,1-0.2c3.9-1,6.4-3.5,7.3-7.4
		c1-4.2,0.9-8.3-2.7-11.5c-2.5-2.2-15.2-4.5-17.1-2.5c-2.4,2.5-0.6,6.2-1.1,9.4C968,145.2,968.1,145.7,968.1,146.2z"/>
	<path class="st2" d="M164.2,193.4c0,18.8,0,37.7,0,56.5c0,1,0,2,0,3c-0.1,1.4,0.4,3.1-2,3.2c-2.4,0.1-2.1-1.5-2.1-3
		c0-3.5,0-7,0-10.5c0-12.3,0-24.7,0-37c0-8.4-4.9-13.3-13.2-13.6c-6.7-0.2-7.8-1.3-7.8-7.9c0-7.2,0.1-14.3,0-21.5
		c0-2.2,0.5-3.5,2.4-4.9c5.5-4.2,6-10.6,1.6-15.2c-4.1-4.3-11-4.1-15,0.5c-4,4.7-3.1,11.3,2.5,15c2.1,1.4,2.3,2.9,2.3,5
		c0,7.2-0.1,14.3,0,21.5c0.1,9.3,4,13.4,13.2,13.8c6.3,0.3,8,2,8,8.1c0,15.2-0.1,30.3,0.1,45.5c0,3-0.4,3.8-3.8,3.3
		c-11.9-1.8-12-1.6-12-13.4c0-5,0.1-10,0-15c-0.2-7.1-4.9-11.8-12-11.8c-11.5-0.1-23-0.1-34.5,0c-2.7,0-4.2-0.8-5.6-3.1
		c-3.5-6.1-6.3-12.4-8.7-19c-1-2.9-0.7-4.3,2.8-4.2c3.5,0.1,6.4-0.1,8.9,3.6c3.3,4.9,10.2,4.9,14.5,0.7c4.1-4,4.2-10.2,0.2-14.3
		c-3.9-4.1-11.3-4.3-14.5,0.5c-3.7,5.4-8.6,2.9-13,3.3c-1.6,0.1-1.9-1.7-2.1-3c-0.7-5.9-1.5-11.9-1.3-17.9c0.1-2.3,1.1-2.7,3.1-2.7
		c11.2,0.1,22.3,0,33.5,0c3.6,0,5.6,2,5.6,5.6c0.1,7.7,0,15.3,0.1,23c0,2.1-1.3,2.8-2.6,3.9c-4.9,4.2-5.3,11.2-0.9,15.4
		c4.2,4,10.9,3.6,14.6-0.8c4.2-4.9,3.3-11.3-2.5-15c-2.3-1.5-2.6-3-2.6-5.3c0.1-6.8,0.1-13.7,0-20.5c-0.1-7.9-4.5-12.4-12.4-12.5
		c-10.3-0.1-20.7-0.1-31,0c-2.9,0-4.4-0.5-3.7-3.9c7.5-36.1,28.5-60.2,63.3-72.6c4.7-1.7,5.8-0.4,5.3,4.1c-0.3,3-0.2,6,0,9
		c0.2,4.5,0.1,8.3-4.5,11.4c-4.6,3.1-3.9,10.2,0.2,14.1c4.1,3.9,10.4,3.7,14.3-0.4c3.8-4.1,4-10.9-0.5-14.2c-3.1-2.3-3.6-4.7-3.5-8
		c0.1-5.2,0.1-10.3,0-15.5c-0.1-2.4,0.7-3.5,3.3-3.8c12-1.4,12-1.5,12,10.7c0,12.5-0.1,25,0.1,37.5c0,3-0.7,4-3.9,4
		c-11.8-0.2-23.7-0.1-35.5,0c-2,0-3.2-0.6-4.5-2.3c-4.2-5.6-10.3-6.2-15-1.8c-4.5,4.3-4.5,10.9,0.1,14.9c4.6,4,11.5,3.2,15.1-2.3
		c1.5-2.3,3.1-2.6,5.3-2.6c11.3,0.1,22.7,0.2,34-0.1c3.6-0.1,4.4,1.1,4.4,4.5C164.1,154.8,164.2,174.1,164.2,193.4z"/>
	<path class="st3" d="M329.4,139c14.5,0,29,0,43.5,0c2.3,0,4.3,0.1,6.2-2c2.4-2.7,5.7-2.7,8.4,0.1c2.4,2.5,2.4,5.6,0.4,8.2
		c-2.3,2.9-5.7,3-8.4,0.7c-2.1-1.8-4.1-1.8-6.4-1.8c-30.5,0-61,0-91.4,0.2c-3.8,0-5.3-0.8-6.4-4.7c-11.6-41.5-38.9-66.5-80.6-76.2
		c-5.7-1.3-11.5-1.7-17.3-1.6c-3.1,0.1-4.4-0.6-4.4-4.1c0.2-16.7,0.1-33.3,0-50c0-2.6,0.4-3.9,3.5-3.8
		c37.1,1.3,71.6,10.2,100.7,34.6c9.3,7.8,16.5,17.3,22.1,28.1c1.1,2.2,2.3,4.1,4.8,5.4c3.1,1.5,3.9,4.5,2.4,7.7
		c-1.5,3.2-4.4,4.2-7.6,3.1c-3.2-1.1-5-4.1-3.7-7.2c1.4-3.3,0-5.4-1.3-7.9c-14.4-25.9-37.2-40.9-64.9-49.6
		c-14.9-4.7-30.1-8-45.8-9.1c-3.8-0.3-5.6,0.5-5.2,4.8c0.3,3.8,0.3,7.7,0,11.5c-0.2,3.4,1,4.3,4.4,4.8c27.5,3.8,53.6,11.4,75.7,29.2
		c15.7,12.6,28,27.9,35.8,46.6c1.7,4.1,3.8,5.3,8,5.1c9.5-0.3,19-0.1,28.5-0.1c3.7,0,7.4,0.4,10.8-2.3c2.5-2,5.5-0.6,7.4,1.9
		c2,2.6,1.6,5.4-0.6,7.7c-2.5,2.5-5.8,2.9-8,0.4c-2.4-2.6-5.1-2.6-8.1-2.6c-12,0-24-0.2-36,0c-2.8,0-4-1-5-3.5
		c-15.5-38.5-44.1-62-83.9-72c-8.1-2-16.2-4.7-24.7-5.2c-3.7-0.2-4.3,0.8-4.2,3.9c0.1,3.8,0.4,7.7-0.1,11.5
		c-0.6,4.9,1.8,5.9,5.9,6.1c10.9,0.4,21.4,3,31.4,7.1c32.3,13.3,53.6,36.7,63.8,70.1c1.2,3.8,2.7,5.1,6.8,5
		C300.4,138.8,314.9,139,329.4,139C329.4,139,329.4,139,329.4,139z"/>
	<path class="st3" d="M314.3,163c9.2,0,18.3,0,27.5,0c3.7,0,7.4,0.3,10.8-2.3c2.6-1.9,5.9-1.1,7.8,1.8c1.8,2.6,1.5,5.6-0.8,7.8
		c-2.4,2.3-5.7,2.9-8.1,0.5c-2.6-2.5-5.5-2.8-8.7-2.8c-18.5,0-37,0.1-55.5-0.1c-3.5,0-4.1,1.5-4.3,4.4c-2.5,43.4-33.1,82-75.1,94.9
		c-8.8,2.7-17.7,4.6-26.9,4.7c-2.3,0-3.3,0.6-3.2,3.1c0.1,5.3,0.1,10.7,0,16c0,2.6,1.3,3,3.5,2.7c6.4-1,12.7-2.2,19-3.7
		c9.2-2.3,18.4-4.2,27.1-8c30.6-13.3,52.4-35.1,64.8-66.3c2.9-7.2,5.1-14.6,7.8-21.8c1-2.6,2.1-3.2,4.6-3.1c4.2,0.2,8.3,0,12.5-0.1
		c3.3,0,6.3,0.2,9-2.7c2.2-2.4,5.6-1.7,8,0.9c2.2,2.4,2.3,5.2,0.2,7.7c-2.2,2.5-5,3.3-8,1.4c-6.5-4.1-13.6-1.5-20.3-1.7
		c-2.1-0.1-2.3,3.7-2.9,5.8c-6.3,20.6-15.7,39.4-30.6,55.1c-17.8,18.9-39.5,31-64.9,36.9c-8.9,2-17.7,4.6-26.9,5
		c-2.6,0.1-2.9,1.6-2.9,3.6c0.1,4.5,0.2,9-0.1,13.5c-0.2,3.2,1,4,4,3.8c12.8-0.7,25.4-2.7,37.8-6.1c18.9-5.2,36.9-12.1,52.2-24.9
		c10-8.3,17.9-18.3,24.1-29.7c0.9-1.7,1.2-3.2,0.4-5.1c-1.4-3.4-0.2-6.5,3.2-7.9c3.3-1.3,6.4-0.3,7.9,3.1c1.5,3.4,0.2,6.2-3,7.9
		c-1.4,0.7-2.4,1.5-3.2,2.9c-15.4,30.4-41.5,47.1-73.1,56.6c-16.6,4.9-33.5,8.4-50.9,8.2c-3.6,0-4.4-1-4.4-4.5
		c0.1-16.5,0.1-33-0.1-49.5c0-3.1,0.7-4.2,4.1-4.3c49.5-1,90.3-35.2,99.8-83.6c1.1-5.4,1.8-10.8,1.3-16.3c-0.3-3,0.7-4,3.8-4
		C292.6,163.1,303.5,163,314.3,163z"/>
	<path class="st1" d="M842.6,173.9c4.2-17.1,10.9-32,16.3-47.3c1.3-3.5,2.9-5.1,6.7-4.6c2.9,0.4,6,0.1,9.5,0.1
		c-10.9,28.6-21.6,56.8-32.6,85.8c-6.5-16.1-12.6-31.5-19.1-47.7c-7.2,16.1-14,31.5-21.3,47.9c-11-29.1-21.7-57.3-32.6-86
		c4.9,0,9.2,0.1,13.5-0.1c2.7-0.1,2.8,1.8,3.4,3.4c5.2,15.4,11.6,30.4,15.7,46.2c0.2,0.6,0.6,1.1,1,1.9c4.3-9.4,8.4-18.4,12.5-27.4
		c1-2,0.4-3.8-0.2-5.8c-2-6-3.8-11.9-5.8-17.9c0.8-0.2,1.1-0.4,1.4-0.4c11.6-0.6,11.6-0.6,15.7,10.2
		C831.9,145.7,837,159.2,842.6,173.9z"/>
	<path class="st1" d="M611.3,118c19.9,19,39.1,37.2,58.3,55.5c1-0.9,0.3-2.5,0.3-3.8c0.1-14.5,0.2-29,0-43.5c0-3.6,0.6-4.9,4.6-4.8
		c9.2,0.2,9.2,0,9.2,9.2c0,25.5,0,50.9,0,77.6c-19.8-19.2-39-37.8-58.3-56.4c-1.1,0.7-0.2,2.2-0.2,3.3c-0.1,15.2-0.1,30.3,0,45.5
		c0,3.2-0.8,4.3-4.1,4.2c-9.8-0.1-9.8,0.1-9.8-9.6C611.3,169.8,611.3,144.5,611.3,118z"/>
	<path class="st1" d="M560,163.5c0,12.5-0.1,25,0.1,37.5c0,3.1-0.7,4.2-4,4.2c-10-0.1-10,0.1-10-9.7c0-7.2-0.1-14.3,0.1-21.5
		c0.1-2.9-0.5-4.1-3.8-4c-10.5,0.2-21,0.2-31.5,0c-3.3-0.1-3.8,1.1-3.8,4c0.2,9.2,0,18.3,0.1,27.5c0.1,2.8-0.8,3.6-3.6,3.6
		c-10.3,0.1-10.3,0.2-10.3-9.9c0-22.8,0.1-45.6-0.1-68.4c0-4.1,1.2-5,5-4.9c9,0.2,9,0.1,9,9.2c0,7.3,0.1,14.7-0.1,22
		c-0.1,2.9,0.5,4.1,3.8,4c10.5-0.2,21-0.2,31.5,0c3.2,0.1,3.8-1,3.8-4c-0.2-9.2,0-18.3-0.1-27.5c0-2.7,0.5-3.7,3.5-3.7
		c10.5-0.2,10.5-0.3,10.5,10.1C560,142.5,560,153,560,163.5C560,163.5,560,163.5,560,163.5z"/>
	<path class="st1" d="M764.1,182.8c0,4.7-0.2,9.3,0.1,14c0.1,2.8-0.7,4.3-3.3,5.2c-13.3,5-26.7,6-40,0.6
		c-25.7-10.5-32.1-46.1-12.4-67.7c13.8-15.1,34-17.3,52.3-9.6c2.3,1,2.9,1.9,1.5,4.4c-4.5,8-4.3,8.1-12.9,5.7
		c-16.2-4.5-31.9,3.7-37.1,19.4c-4.9,15,2.6,30.8,17.2,36.3c6.3,2.4,12.7,2.1,19.2,0.8c1.7-0.3,2.8-1.1,2.6-3c0-0.3,0-0.7,0-1
		c0.5-10.9,0.5-11.3-10.2-10.7c-6.4,0.4-4.7-3.4-5.1-6.8c-0.4-4.2,0.6-5.9,5.3-5.5c6.5,0.5,13,0.2,19.5,0.1c2.6-0.1,3.5,0.7,3.4,3.3
		C764,173.1,764.1,177.9,764.1,182.8z"/>
	<path class="st1" d="M885.3,163.5c0-12.5,0.1-25-0.1-37.5c-0.1-3.3,0.9-4.2,4.2-4.1c15.3,0.2,30.6,0.2,46,0c3.5,0,4.5,0.8,4.5,4.4
		c-0.2,8.7,0,8.7-8.5,8.7c-9.3,0-18.7,0.2-28-0.1c-3.6-0.1-4.5,1.1-4.3,4.5c0.3,4.6,0.2,9.3,0,14c-0.1,2.8,0.7,3.7,3.6,3.6
		c9.7-0.2,19.3,0,29-0.1c2.8,0,3.6,0.8,3.6,3.6c0.1,9.5,0.2,9.5-9.1,9.5c-7.7,0-15.3,0.2-23-0.1c-3.4-0.1-4.2,1-4.1,4.2
		c0.2,4.6,0.3,9.3,0,14c-0.2,3.1,0.7,4,3.8,3.9c11.3-0.2,22.6,0.1,34-0.2c3.4-0.1,4.5,0.7,4.5,4.3c-0.2,8.8,0,8.8-8.9,8.8
		c-14.3,0-28.6-0.1-43,0.1c-3.2,0-4.3-0.7-4.2-4.1C885.4,188.5,885.3,176,885.3,163.5z"/>
	<path class="st1" d="M445.3,169.5c0-10-0.2-20,0.1-30c0.1-3.9-1.2-4.8-4.8-4.5c-4,0.3-8,0-12,0.1c-2.1,0.1-2.8-0.5-3-2.7
		C425,122,424.9,122,435,122c13.3,0,26.6,0.1,40-0.1c3.3,0,4.6,0.6,4.5,4.3c-0.2,8.9,0,8.9-8.8,8.9c-11.4,0-11.4,0-11.4,11.2
		c0,18.1-0.1,36.3,0.1,54.4c0,3.5-0.9,4.4-4.4,4.4c-9.6-0.2-9.6,0-9.6-9.6C445.3,186.8,445.3,178.1,445.3,169.5z"/>
	<path class="st3" d="M204.5,167.2c7,0,14,0.1,21-0.1c2.8-0.1,3.6,1,3.3,3.5c-1.2,10.5-3.1,20.8-7.2,30.6c-0.6,1.5-1.1,2.6-3.6,1.7
		c-10.7-3.8-21.7-6.8-33.3-6.2c-3,0.2-4.8-1.1-4.7-4.7c0.3-7.2,0.2-14.3,0-21.5c-0.1-2.6,0.8-3.5,3.4-3.4
		C190.5,167.3,197.5,167.2,204.5,167.2z"/>
	<path class="st0" d="M204.3,159.8c-7,0-14-0.1-20.9,0c-2.3,0-3.2-0.6-3.2-3.1c0.1-8,0.1-15.9,0-23.9c0-2.3,1.1-3,3-2.6
		c11.4,2.5,22.6,0,33.6-2.3c4-0.9,4.8,0.6,5.9,3.5c3.2,8.3,4.5,17.1,5.9,25.8c0.4,2.6-1.2,2.6-3,2.5
		C218.6,159.8,211.4,159.8,204.3,159.8z"/>
	<path class="st1" d="M579.3,163.5c0-12.5,0.1-25-0.1-37.5c-0.1-3.4,1-4.1,4.2-4.1c9.8,0.1,9.8-0.1,9.8,9.9c0,23-0.1,46,0.1,68.9
		c0,3.5-0.9,4.4-4.4,4.4c-9.6-0.2-9.6,0-9.6-9.7C579.3,184.8,579.3,174.1,579.3,163.5z"/>
	<path class="st4" d="M262.3,168.5c-0.8,17.2-6.8,32.2-16.6,45.9c-1.5,2-2.8,2.6-5.1,0.6c-2.8-2.5-6.2-4.3-9.5-6.1
		c-2.3-1.2-3-2.1-1.9-4.8c3.9-9.8,7-19.7,7.1-30.5c0-3.9,1.1-7.1,6.5-6.5c5.6,0.6,11.3,0.1,16.9,0.2
		C260.8,167.2,262.4,166.6,262.3,168.5z"/>
	<path class="st4" d="M250,159.5c-4.3,0-9.7,1.6-12.6-0.4c-3-2.1-1.3-8-2.1-12.1c-1.3-6.5-2.9-12.9-5.2-19c-1-2.6-0.9-3.7,1.8-4.8
		c4.6-1.9,9-4.2,13.3-6.6c2-1.2,2.7-0.7,3.8,1.1c7.8,12.2,12.1,25.6,13.5,39.9c0.2,2.2-0.8,2.5-2.5,2.4c-3.3-0.1-6.7,0-10,0
		C250,159.7,250,159.6,250,159.5z"/>
	<path class="st4" d="M180.2,247.1c0-14,0-27.2,0-40.5c0-2.1,1-2.6,2.8-2.4c10.8,0.9,21.5,2.3,31.8,6.1c1.3,0.5,2.4,1,1.3,2.8
		C207.3,227.6,195.9,239,180.2,247.1z"/>
	<path class="st4" d="M217.1,119.4c-10.5,3.1-21.1,3.8-31.8,3.4c-3.2-0.1-5.4-1.1-5.3-5.3c0.3-11.3,0.1-22.5,0.1-34.6
		C196.8,91.4,208.5,103.7,217.1,119.4z"/>
	<path class="st0" d="M132.1,250.3c-15.9-6.1-28.5-15.6-39.6-29.3c8,0,15,0,22,0c3.8,0,7.7-0.1,11.5,0c3.3,0.1,6,1.6,6.1,5.3
		C132.2,234.1,132.1,241.8,132.1,250.3z"/>
	<path class="st4" d="M192.5,80c15,3.2,28,8.8,39,18.5c3.2,2.8,7,5,9.2,8.9c1,1.7,0.7,2.3-0.8,2.9c-0.5,0.2-0.9,0.4-1.3,0.6
		c-4,1.9-8.1,5.5-12,5.3c-4.3-0.3-5.1-6.5-7.7-10c-6.4-8.5-13.2-16.5-22.1-22.6C195.5,82.7,194.3,81.5,192.5,80z"/>
	<path class="st4" d="M198.6,245.7c9.9-8.6,18.1-18.2,24.6-29.4c0.9-1.6,1.9-1.5,3.3-0.8c1.2,0.7,2.3,1.3,3.4,2
		c10.3,6.7,10,4.7,1,12.5C221.6,237.9,210.9,243.4,198.6,245.7z"/>
	<path class="st5" d="M968.1,180.6c0-0.7,0-1.3,0-2c0-10.1,0-10.1,11-9.6c9.8,0.5,15,5.1,14.2,12.8c-0.5,5-3.5,7.9-9.5,9.4
		c-1.1,0.3-2.3,0.5-3.4,0.6C968.1,192.8,968.1,192.8,968.1,180.6z"/>
	<path class="st5" d="M968.1,146.2c0-0.5-0.1-1,0-1.5c0.4-3.2-1.4-6.9,1.1-9.4c1.9-2,14.7,0.3,17.1,2.5c3.6,3.2,3.6,7.3,2.7,11.5
		c-0.9,3.9-3.4,6.4-7.3,7.4c-0.3,0.1-0.6,0.2-1,0.2C969.2,158.8,968.1,157.9,968.1,146.2z"/>
</g>
<path class="st6" d="z"/>
</svg>
