<svg width="100%" height="auto" viewBox="0 0 279 32" fill="none" xmlns="http://www.w3.org/2000/svg">
<path d="M261.089 0.857152C260.549 0.432622 260.28 0.220358 259.962 0.110179C259.644 0 259.301 0 258.614 0H4C2.11438 0 1.17157 0 0.585786 0.585786C0 1.17157 0 2.11438 0 4V28C0 29.8856 0 30.8284 0.585786 31.4142C1.17157 32 2.11438 32 4 32H258.58C259.283 32 259.634 32 259.959 31.8847C260.284 31.7694 260.557 31.5476 261.102 31.1042L276.119 18.8998C277.91 17.4443 278.806 16.7166 278.798 15.7553C278.791 14.7941 277.884 14.0803 276.071 12.6528L261.089 0.857152Z" fill="#E4E6E6"/>
</svg>
