<svg width="388" height="325" viewBox="0 0 388 325" xmlns="http://www.w3.org/2000/svg">
    <g clip-path="url(#clip0_23_2687)">
        <path d="M145.82 324.22C145.72 317.52 143.32 311.32 142.02 304.82C141.62 303.02 140.42 302.52 138.82 302.32C135.02 301.72 131.12 301.52 127.62 300.12C122.22 297.92 119.12 299.82 116.22 304.32C113.72 308.22 111.62 313.72 107.52 314.82C103.42 315.92 99.1198 311.72 94.9198 309.82C90.0198 307.72 85.3198 305.32 80.4198 303.12C78.0198 302.12 77.2198 300.72 78.0198 298.12C79.2198 294.02 79.7198 289.62 81.0198 285.62C82.2198 282.02 81.5198 279.72 78.3198 277.72C74.9198 275.62 71.7198 273.12 68.9198 270.32C66.2198 267.72 63.9198 267.72 61.0198 269.62C60.9198 269.72 60.7198 269.82 60.6198 269.82C55.6198 271.92 50.5198 277.52 46.1198 276.12C41.7198 274.72 38.8198 268.32 35.4198 264.12C32.5198 260.62 29.8198 257.02 26.9198 253.62C25.3198 251.72 25.3198 250.32 26.9198 248.42C29.6198 245.42 31.7198 242.02 34.6198 239.22C37.9198 236.02 38.6198 233.02 35.6198 229.32C34.8198 228.32 34.0198 227.12 33.7198 225.82C31.8198 216.12 25.5198 214.22 16.4198 215.22C7.7198 216.12 7.6198 215.42 5.5198 206.72C3.9198 199.92 2.5198 193.12 0.6198 186.42C-0.1802 183.62 0.6198 182.62 2.9198 181.62C7.3198 179.72 11.6198 177.42 16.0198 175.52C18.1198 174.62 19.0198 173.42 18.9198 171.02C18.6198 165.82 18.7198 160.72 18.9198 155.52C19.0198 153.12 18.2198 151.92 16.0198 151.12C11.5198 149.32 7.2198 147.12 2.8198 145.22C0.5198 144.22 -0.480199 143.02 0.219801 140.32C2.3198 131.82 4.1198 123.22 5.9198 114.62C6.4198 112.12 7.6198 111.02 10.3198 111.12C15.0198 111.32 19.6198 111.02 24.3198 111.22C27.1198 111.32 28.5198 110.42 29.5198 107.82C31.4198 103.22 33.6198 98.7201 35.8198 94.3201C36.9198 92.2201 36.9198 90.8201 35.2198 89.0201C31.9198 85.4201 29.2198 81.4201 25.9198 77.9201C23.8198 75.7201 24.0198 74.3201 25.8198 72.1201C31.4198 65.3201 36.9198 58.4201 42.3198 51.4201C43.9198 49.3201 45.3198 48.8201 47.7198 50.2201C51.9198 52.5201 56.4198 54.4201 60.6198 56.7201C62.7198 57.8201 64.1198 57.7201 65.9198 56.1201C69.7198 52.8201 73.5198 49.6201 77.6198 46.8201C80.0198 45.1201 80.3198 43.3201 79.6198 40.8201C78.4198 36.3201 77.3198 31.8201 76.0198 27.3201C75.3198 24.9201 75.9198 23.3201 78.4198 22.2201C86.5198 18.4201 94.6198 14.5201 102.62 10.5201C104.62 9.52012 106.32 9.32012 107.52 11.6201C107.62 11.7201 107.72 11.9201 107.82 12.0201C111.62 16.4201 113.92 23.4201 119.02 24.9201C123.82 26.3201 129.82 23.0201 135.42 22.0201C138.62 21.5201 140.32 20.0201 140.72 16.7201C141.42 12.3201 142.52 7.92012 143.32 3.52012C143.72 1.12012 144.72 -0.17988 147.52 0.0201201C151.82 0.32012 156.22 0.22012 160.52 0.0201201C163.02 -0.0798799 164.02 0.62012 164.02 3.32012C163.92 20.5201 163.92 37.6201 164.02 54.8201C164.02 58.1201 162.32 58.0201 160.02 58.1201C114.32 59.8201 82.1198 82.1201 64.6198 123.92C40.3198 182.22 76.6198 249.72 138.22 263.12C145.42 264.72 152.62 265.52 160.02 265.42C162.62 265.42 163.92 265.82 163.92 268.92C163.82 286.12 163.82 303.22 163.92 320.42C163.92 321.82 163.52 323.02 162.82 324.12C157.12 324.22 151.52 324.22 145.82 324.22Z" fill="#33B8A4"/>
        <path d="M162.02 191.62C162.02 210.42 162.02 229.32 162.02 248.12C162.02 249.12 162.02 250.12 162.02 251.12C161.92 252.52 162.42 254.22 160.02 254.32C157.62 254.42 157.92 252.82 157.92 251.32C157.92 247.82 157.92 244.32 157.92 240.82C157.92 228.52 157.92 216.12 157.92 203.82C157.92 195.42 153.02 190.52 144.72 190.22C138.02 190.02 136.92 188.92 136.92 182.32C136.92 175.12 137.02 168.02 136.92 160.82C136.92 158.62 137.42 157.32 139.32 155.92C144.82 151.72 145.32 145.32 140.92 140.72C136.82 136.42 129.92 136.62 125.92 141.22C121.92 145.92 122.82 152.52 128.42 156.22C130.52 157.62 130.72 159.12 130.72 161.22C130.72 168.42 130.62 175.52 130.72 182.72C130.82 192.02 134.72 196.12 143.92 196.52C150.22 196.82 151.92 198.52 151.92 204.62C151.92 219.82 151.82 234.92 152.02 250.12C152.02 253.12 151.62 253.92 148.22 253.42C136.32 251.62 136.22 251.82 136.22 240.02C136.22 235.02 136.32 230.02 136.22 225.02C136.02 217.92 131.32 213.22 124.22 213.22C112.72 213.12 101.22 213.12 89.7199 213.22C87.0199 213.22 85.5199 212.42 84.1199 210.12C80.6199 204.02 77.8199 197.72 75.4199 191.12C74.4199 188.22 74.7199 186.82 78.2199 186.92C81.7199 187.02 84.6199 186.82 87.1199 190.52C90.4199 195.42 97.3199 195.42 101.62 191.22C105.72 187.22 105.82 181.02 101.82 176.92C97.9199 172.82 90.5199 172.62 87.3199 177.42C83.6199 182.82 78.7199 180.32 74.3199 180.72C72.7199 180.82 72.4199 179.02 72.2199 177.72C71.5199 171.82 70.7199 165.82 70.9199 159.82C71.0199 157.52 72.0199 157.12 74.0199 157.12C85.2199 157.22 96.3199 157.12 107.52 157.12C111.12 157.12 113.12 159.12 113.12 162.72C113.22 170.42 113.12 178.02 113.22 185.72C113.22 187.82 111.92 188.52 110.62 189.62C105.72 193.82 105.32 200.82 109.72 205.02C113.92 209.02 120.62 208.62 124.32 204.22C128.52 199.32 127.62 192.92 121.82 189.22C119.52 187.72 119.22 186.22 119.22 183.92C119.32 177.12 119.32 170.22 119.22 163.42C119.12 155.52 114.72 151.02 106.82 150.92C96.5199 150.82 86.1199 150.82 75.8199 150.92C72.9199 150.92 71.4199 150.42 72.1199 147.02C79.6199 110.92 100.62 86.8201 135.42 74.4201C140.12 72.7201 141.22 74.0201 140.72 78.5201C140.42 81.5201 140.52 84.5201 140.72 87.5201C140.92 92.0201 140.82 95.8201 136.22 98.9201C131.62 102.02 132.32 109.12 136.42 113.02C140.52 116.92 146.82 116.72 150.72 112.62C154.52 108.52 154.72 101.72 150.22 98.4201C147.12 96.1201 146.62 93.7201 146.72 90.4201C146.82 85.2201 146.82 80.1201 146.72 74.9201C146.62 72.5201 147.42 71.4201 150.02 71.1201C162.02 69.7201 162.02 69.6201 162.02 81.8201C162.02 94.3201 161.92 106.82 162.12 119.32C162.12 122.32 161.42 123.32 158.22 123.32C146.42 123.12 134.52 123.22 122.72 123.32C120.72 123.32 119.52 122.72 118.22 121.02C114.02 115.42 107.92 114.82 103.22 119.22C98.7199 123.52 98.7199 130.12 103.32 134.12C107.92 138.12 114.82 137.32 118.42 131.82C119.92 129.52 121.52 129.22 123.72 129.22C135.02 129.32 146.42 129.42 157.72 129.12C161.32 129.02 162.12 130.22 162.12 133.62C161.92 153.02 162.02 172.32 162.02 191.62Z" fill="#33B8A4"/>
        <path d="M327.22 137.22C341.72 137.22 356.22 137.22 370.72 137.22C373.02 137.22 375.02 137.32 376.92 135.22C379.32 132.52 382.62 132.52 385.32 135.32C387.72 137.82 387.72 140.92 385.72 143.52C383.42 146.42 380.02 146.52 377.32 144.22C375.22 142.42 373.22 142.42 370.92 142.42C340.42 142.42 309.92 142.42 279.52 142.62C275.72 142.62 274.22 141.82 273.12 137.92C261.52 96.4201 234.22 71.4201 192.52 61.7201C186.82 60.4201 181.02 60.0201 175.22 60.1201C172.12 60.2201 170.82 59.5201 170.82 56.0201C171.02 39.3201 170.92 22.7201 170.82 6.02008C170.82 3.42008 171.22 2.12008 174.32 2.22008C211.42 3.52008 245.92 12.4201 275.02 36.8201C284.32 44.6201 291.52 54.1201 297.12 64.9201C298.22 67.1201 299.42 69.0201 301.92 70.3201C305.02 71.8201 305.82 74.8201 304.32 78.0201C302.82 81.2201 299.92 82.2201 296.72 81.1201C293.52 80.0201 291.72 77.0201 293.02 73.9201C294.42 70.6201 293.02 68.5201 291.72 66.0201C277.32 40.1201 254.52 25.1201 226.82 16.4201C211.92 11.7201 196.72 8.42008 181.02 7.32008C177.22 7.02008 175.42 7.82008 175.82 12.1201C176.12 15.9201 176.12 19.8201 175.82 23.6201C175.62 27.0201 176.82 27.9201 180.22 28.4201C207.72 32.2201 233.82 39.8201 255.92 57.6201C271.62 70.2201 283.92 85.5201 291.72 104.22C293.42 108.32 295.52 109.52 299.72 109.32C309.22 109.02 318.72 109.22 328.22 109.22C331.92 109.22 335.62 109.62 339.02 106.92C341.52 104.92 344.52 106.32 346.42 108.82C348.42 111.42 348.02 114.22 345.82 116.52C343.32 119.02 340.02 119.42 337.82 116.92C335.42 114.32 332.72 114.32 329.72 114.32C317.72 114.32 305.72 114.12 293.72 114.32C290.92 114.32 289.72 113.32 288.72 110.82C273.22 72.3201 244.62 48.8201 204.82 38.8201C196.72 36.8201 188.62 34.1201 180.12 33.6201C176.42 33.4201 175.82 34.4201 175.92 37.5201C176.02 41.3201 176.32 45.2201 175.82 49.0201C175.22 53.9201 177.62 54.9201 181.72 55.1201C192.62 55.5201 203.12 58.1201 213.12 62.2201C245.42 75.5201 266.72 98.9201 276.92 132.32C278.12 136.12 279.62 137.42 283.72 137.32C298.22 137.02 312.72 137.22 327.22 137.22Z" fill="#33B8A4"/>
        <path d="M312.12 161.22C321.32 161.22 330.42 161.22 339.62 161.22C343.32 161.22 347.02 161.52 350.42 158.92C353.02 157.02 356.32 157.82 358.22 160.72C360.02 163.32 359.72 166.32 357.42 168.52C355.02 170.82 351.72 171.42 349.32 169.02C346.72 166.52 343.82 166.22 340.62 166.22C322.12 166.22 303.62 166.32 285.12 166.12C281.62 166.12 281.02 167.62 280.82 170.52C278.32 213.92 247.72 252.52 205.72 265.42C196.92 268.12 188.02 270.02 178.82 270.12C176.52 270.12 175.52 270.72 175.62 273.22C175.72 278.52 175.72 283.92 175.62 289.22C175.62 291.82 176.92 292.22 179.12 291.92C185.52 290.92 191.82 289.72 198.12 288.22C207.32 285.92 216.52 284.02 225.22 280.22C255.82 266.92 277.62 245.12 290.02 213.92C292.92 206.72 295.12 199.32 297.82 192.12C298.82 189.52 299.92 188.92 302.42 189.02C306.62 189.22 310.72 189.02 314.92 188.92C318.22 188.92 321.22 189.12 323.92 186.22C326.12 183.82 329.52 184.52 331.92 187.12C334.12 189.52 334.22 192.32 332.12 194.82C329.92 197.32 327.12 198.12 324.12 196.22C317.62 192.12 310.52 194.72 303.82 194.52C301.72 194.42 301.52 198.22 300.92 200.32C294.62 220.92 285.22 239.72 270.32 255.42C252.52 274.32 230.82 286.42 205.42 292.32C196.52 294.32 187.72 296.92 178.52 297.32C175.92 297.42 175.62 298.92 175.62 300.92C175.72 305.42 175.82 309.92 175.52 314.42C175.32 317.62 176.52 318.42 179.52 318.22C192.32 317.52 204.92 315.52 217.32 312.12C236.22 306.92 254.22 300.02 269.52 287.22C279.52 278.92 287.42 268.92 293.62 257.52C294.52 255.82 294.82 254.32 294.02 252.42C292.62 249.02 293.82 245.92 297.22 244.52C300.52 243.22 303.62 244.22 305.12 247.62C306.62 251.02 305.32 253.82 302.12 255.52C300.72 256.22 299.72 257.02 298.92 258.42C283.52 288.82 257.42 305.52 225.82 315.02C209.22 319.92 192.32 323.42 174.92 323.22C171.32 323.22 170.52 322.22 170.52 318.72C170.62 302.22 170.62 285.72 170.42 269.22C170.42 266.12 171.12 265.02 174.52 264.92C224.02 263.92 264.82 229.72 274.32 181.32C275.42 175.92 276.12 170.52 275.62 165.02C275.32 162.02 276.32 161.02 279.42 161.02C290.42 161.32 301.32 161.22 312.12 161.22Z" fill="#33B8A4"/>
        <path d="M202.32 165.42C209.32 165.42 216.32 165.52 223.32 165.32C226.12 165.22 226.92 166.32 226.62 168.82C225.42 179.32 223.52 189.62 219.42 199.42C218.82 200.92 218.32 202.02 215.82 201.12C205.12 197.32 194.12 194.32 182.52 194.92C179.52 195.12 177.72 193.82 177.82 190.22C178.12 183.02 178.02 175.92 177.82 168.72C177.72 166.12 178.62 165.22 181.22 165.32C188.32 165.52 195.32 165.42 202.32 165.42Z" fill="#33B8A4"/>
        <path d="M202.12 158.02C195.12 158.02 188.12 157.92 181.22 158.02C178.92 158.02 178.02 157.42 178.02 154.92C178.12 146.92 178.12 139.02 178.02 131.02C178.02 128.72 179.12 128.02 181.02 128.42C192.42 130.92 203.62 128.42 214.62 126.12C218.62 125.22 219.42 126.72 220.52 129.62C223.72 137.92 225.02 146.72 226.42 155.42C226.82 158.02 225.22 158.02 223.42 157.92C216.42 158.02 209.22 158.02 202.12 158.02Z" fill="#33B8A4"/>
        <path d="M260.12 166.72C259.32 183.92 253.32 198.92 243.52 212.62C242.02 214.62 240.72 215.22 238.42 213.22C235.62 210.72 232.22 208.92 228.92 207.12C226.62 205.92 225.92 205.02 227.02 202.32C230.92 192.52 234.02 182.62 234.12 171.82C234.12 167.92 235.22 164.72 240.62 165.32C246.22 165.92 251.92 165.42 257.52 165.52C258.62 165.42 260.22 164.82 260.12 166.72Z" fill="#33B8A4"/>
        <path d="M247.82 157.72C243.52 157.72 238.12 159.32 235.22 157.32C232.22 155.22 233.92 149.32 233.12 145.22C231.82 138.72 230.22 132.32 227.92 126.22C226.92 123.62 227.02 122.52 229.72 121.42C234.32 119.52 238.72 117.22 243.02 114.82C245.02 113.62 245.72 114.12 246.82 115.92C254.62 128.12 258.92 141.52 260.32 155.82C260.52 158.02 259.52 158.32 257.82 158.22C254.52 158.12 251.12 158.22 247.82 158.22C247.82 157.92 247.82 157.82 247.82 157.72Z" fill="#33B8A4"/>
        <path d="M178.02 245.32C178.02 231.32 178.02 218.12 178.02 204.82C178.02 202.72 179.02 202.22 180.82 202.42C191.62 203.32 202.32 204.72 212.62 208.52C213.92 209.02 215.02 209.52 213.92 211.32C205.12 225.82 193.72 237.22 178.02 245.32Z" fill="#33B8A4"/>
        <path d="M214.92 117.62C204.42 120.72 193.82 121.42 183.12 121.02C179.92 120.92 177.72 119.92 177.82 115.72C178.12 104.42 177.92 93.2201 177.92 81.1201C194.62 89.6201 206.32 101.92 214.92 117.62Z" fill="#33B8A4"/>
        <path d="M129.92 248.52C114.02 242.42 101.42 232.92 90.3198 219.22C98.3198 219.22 105.32 219.22 112.32 219.22C116.12 219.22 120.02 219.12 123.82 219.22C127.12 219.32 129.82 220.82 129.92 224.52C130.02 232.32 129.92 240.02 129.92 248.52Z" fill="#33B8A4"/>
        <path d="M190.32 78.2201C205.32 81.4201 218.32 87.0201 229.32 96.7201C232.52 99.5201 236.32 101.72 238.52 105.62C239.52 107.32 239.22 107.92 237.72 108.52C237.22 108.72 236.82 108.92 236.42 109.12C232.42 111.02 228.32 114.62 224.42 114.42C220.12 114.12 219.32 107.92 216.72 104.42C210.32 95.9201 203.52 87.9201 194.62 81.8201C193.32 80.9201 192.12 79.7201 190.32 78.2201Z" fill="#33B8A4"/>
        <path d="M196.42 243.92C206.32 235.32 214.52 225.72 221.02 214.52C221.92 212.92 222.92 213.02 224.32 213.72C225.52 214.42 226.62 215.02 227.72 215.72C238.02 222.42 237.72 220.42 228.72 228.22C219.42 236.12 208.72 241.62 196.42 243.92Z" fill="#33B8A4"/>
    </g>
</svg>
