<svg width="374" height="453" viewBox="0 0 374 453" fill="none" xmlns="http://www.w3.org/2000/svg">
<path d="M65 119L99 119C104.523 119 109 123.477 109 129L109 309" stroke="url(#paint0_linear_356_933)" stroke-width="2"/>
<path d="M65 114L177 114C182.523 114 187 109.523 187 104V65" stroke="url(#paint1_linear_356_933)" stroke-width="2"/>
<rect x="0.5" y="235.5" width="64" height="64" rx="4.5" stroke="#4C4D4C"/>
<path d="M38.6029 268.896C38.6427 269.013 38.7207 269.125 38.7753 269.198L38.7753 269.198L26.3975 268.902M38.6029 268.896C38.6024 268.895 38.6018 268.893 38.6013 268.892C38.6016 268.893 38.6021 268.894 38.6026 268.895C38.6032 268.897 38.6036 268.898 38.6029 268.896ZM38.6029 268.896C38.6024 268.895 38.6013 268.892 38.5995 268.887C38.5978 268.883 38.5912 268.865 38.585 268.844C38.5816 268.832 38.5769 268.815 38.5728 268.793C38.5689 268.772 38.564 268.739 38.564 268.698V259.064C38.564 255.712 35.8517 253 32.5002 253C29.149 253 26.4364 255.718 26.4364 259.064V268.704C26.4364 268.745 26.4315 268.778 26.4276 268.799C26.4235 268.821 26.4187 268.838 26.4154 268.85C26.4093 268.871 26.4029 268.888 26.401 268.893L26.4009 268.893C26.399 268.898 26.398 268.901 26.3975 268.902M26.3975 268.902C26.398 268.901 26.3985 268.899 26.399 268.898C26.3987 268.898 26.3982 268.9 26.3978 268.901C26.3972 268.903 26.3968 268.904 26.3975 268.902ZM28.395 270.889L28.3947 270.89C27.7143 271.771 27.3118 272.868 27.3118 274.067C27.3118 276.933 29.6337 279.255 32.5002 279.255C35.3667 279.255 37.6886 276.933 37.6886 274.067C37.6886 272.869 37.2865 271.771 36.605 270.895C36.1719 270.334 35.8132 269.584 35.8132 268.71V259.064C35.8132 257.235 34.3294 255.751 32.5002 255.751C30.671 255.751 29.1871 257.235 29.1871 259.064V268.704C29.1871 269.578 28.8283 270.329 28.395 270.889ZM31.7297 271.883L32.0625 271.765V271.412V264.69C32.0625 264.45 32.2606 264.252 32.5002 264.252C32.7398 264.252 32.9379 264.45 32.9379 264.69V271.412V271.765L33.2707 271.883C34.168 272.202 34.8132 273.061 34.8132 274.067C34.8132 275.344 33.7771 276.38 32.5002 276.38C31.2233 276.38 30.1871 275.344 30.1871 274.067C30.1871 273.061 30.8323 272.202 31.7297 271.883Z" stroke="#979999"/>
<rect y="81" width="65" height="65" rx="5" fill="#33B8A4"/>
<path d="M36.4062 111.75C36.875 110.192 37.8467 108.864 38.8086 107.541C39.0625 107.194 39.3164 106.848 39.5605 106.496C40.5273 105.104 41.0938 103.42 41.0938 101.599C41.0938 96.8477 37.2461 93 32.5 93C27.7539 93 23.9062 96.8477 23.9062 101.594C23.9062 103.415 24.4727 105.104 25.4395 106.491C25.6836 106.843 25.9375 107.189 26.1914 107.536C27.1582 108.859 28.1299 110.192 28.5938 111.745H36.4062V111.75ZM32.5 118C34.6582 118 36.4062 116.252 36.4062 114.094V113.312H28.5938V114.094C28.5938 116.252 30.3418 118 32.5 118ZM28.5938 101.594C28.5938 102.023 28.2422 102.375 27.8125 102.375C27.3828 102.375 27.0312 102.023 27.0312 101.594C27.0312 98.5713 29.4775 96.125 32.5 96.125C32.9297 96.125 33.2812 96.4766 33.2812 96.9062C33.2812 97.3359 32.9297 97.6875 32.5 97.6875C30.3418 97.6875 28.5938 99.4355 28.5938 101.594Z" fill="#141414"/>
<path d="M23.548 132H22.236V127.464H20.676V126.456H25.164L25.036 127.464H23.548V132ZM27.1209 128.176C27.4782 127.797 27.8942 127.608 28.3689 127.608C28.7422 127.608 29.0302 127.72 29.2329 127.944C29.4355 128.163 29.5369 128.475 29.5369 128.88V132H28.2729V129.232C28.2729 128.976 28.2435 128.797 28.1849 128.696C28.1262 128.595 28.0195 128.544 27.8649 128.544C27.7369 128.544 27.6115 128.589 27.4889 128.68C27.3715 128.765 27.2489 128.893 27.1209 129.064V132H25.8569V126.064L27.1209 125.936V128.176ZM32.4858 125.528C32.7044 125.528 32.8831 125.597 33.0218 125.736C33.1604 125.869 33.2298 126.037 33.2298 126.24C33.2298 126.448 33.1604 126.619 33.0218 126.752C32.8831 126.885 32.7044 126.952 32.4858 126.952C32.2671 126.952 32.0858 126.885 31.9418 126.752C31.8031 126.613 31.7338 126.443 31.7338 126.24C31.7338 126.037 31.8031 125.869 31.9418 125.736C32.0858 125.597 32.2671 125.528 32.4858 125.528ZM33.2458 131.136H34.3338V132H30.7818V131.136H31.9818V128.616H30.8218V127.752H33.2458V131.136ZM35.4506 127.752H36.5546L36.6426 128.24C36.8346 128.027 37.0346 127.869 37.2426 127.768C37.456 127.661 37.696 127.608 37.9626 127.608C38.3306 127.608 38.616 127.72 38.8186 127.944C39.0266 128.168 39.1306 128.48 39.1306 128.88V132H37.8666V129.248C37.8666 128.981 37.8373 128.797 37.7786 128.696C37.72 128.595 37.6133 128.544 37.4586 128.544C37.3306 128.544 37.2053 128.587 37.0826 128.672C36.9653 128.752 36.8426 128.872 36.7146 129.032V132H35.4506V127.752ZM44.3115 128C44.0342 128.112 43.6262 128.168 43.0875 128.168C43.3648 128.291 43.5702 128.437 43.7035 128.608C43.8422 128.779 43.9115 128.997 43.9115 129.264C43.9115 129.536 43.8368 129.781 43.6875 130C43.5382 130.213 43.3275 130.381 43.0555 130.504C42.7835 130.627 42.4688 130.688 42.1115 130.688C41.9355 130.688 41.7702 130.672 41.6155 130.64C41.5728 130.661 41.5382 130.696 41.5115 130.744C41.4902 130.787 41.4795 130.832 41.4795 130.88C41.4795 130.96 41.5088 131.024 41.5675 131.072C41.6315 131.115 41.7568 131.136 41.9435 131.136H42.6475C42.9675 131.136 43.2502 131.189 43.4955 131.296C43.7408 131.403 43.9302 131.549 44.0635 131.736C44.1968 131.923 44.2635 132.133 44.2635 132.368C44.2635 132.811 44.0688 133.155 43.6795 133.4C43.2955 133.651 42.7328 133.776 41.9915 133.776C41.4635 133.776 41.0475 133.72 40.7435 133.608C40.4448 133.501 40.2342 133.349 40.1115 133.152C39.9942 132.955 39.9355 132.707 39.9355 132.408H41.0555C41.0555 132.541 41.0795 132.645 41.1275 132.72C41.1808 132.795 41.2768 132.851 41.4155 132.888C41.5542 132.925 41.7568 132.944 42.0235 132.944C42.3968 132.944 42.6528 132.901 42.7915 132.816C42.9355 132.731 43.0075 132.611 43.0075 132.456C43.0075 132.328 42.9542 132.224 42.8475 132.144C42.7462 132.069 42.5942 132.032 42.3915 132.032H41.7195C41.2822 132.032 40.9542 131.955 40.7355 131.8C40.5168 131.64 40.4075 131.437 40.4075 131.192C40.4075 131.032 40.4475 130.883 40.5275 130.744C40.6128 130.6 40.7302 130.48 40.8795 130.384C40.6128 130.24 40.4208 130.072 40.3035 129.88C40.1862 129.683 40.1275 129.445 40.1275 129.168C40.1275 128.853 40.2075 128.579 40.3675 128.344C40.5275 128.109 40.7515 127.931 41.0395 127.808C41.3275 127.68 41.6555 127.616 42.0235 127.616C42.4502 127.627 42.8128 127.587 43.1115 127.496C43.4102 127.4 43.7142 127.259 44.0235 127.072L44.3115 128ZM42.0555 128.44C41.8528 128.44 41.6928 128.504 41.5755 128.632C41.4635 128.76 41.4075 128.933 41.4075 129.152C41.4075 129.381 41.4662 129.56 41.5835 129.688C41.7008 129.816 41.8582 129.88 42.0555 129.88C42.2635 129.88 42.4235 129.819 42.5355 129.696C42.6475 129.568 42.7035 129.381 42.7035 129.136C42.7035 128.672 42.4875 128.44 42.0555 128.44Z" fill="#141414"/>
<rect x="154" width="65" height="65" rx="5" fill="#D65CAB"/>
<path d="M177.125 15.125C177.125 13.4014 178.526 12 180.25 12H188.063V18.25C188.063 19.1143 188.761 19.8125 189.625 19.8125H195.875V33.875C195.875 35.5986 194.474 37 192.75 37H180.25C178.526 37 177.125 35.5986 177.125 33.875V15.125ZM195.875 18.25H189.625V12L195.875 18.25Z" fill="#141414"/>
<path d="M184.751 51H183.439V46.464H181.879V45.456H186.367L186.239 46.464H184.751V51ZM191.092 48.2C191.092 50.0667 190.199 51 188.412 51H186.916V45.456H188.316C189.153 45.456 189.825 45.6533 190.332 46.048C190.839 46.4373 191.092 47.1547 191.092 48.2ZM189.74 48.2C189.74 47.512 189.633 47.0427 189.42 46.792C189.207 46.536 188.903 46.408 188.508 46.408H188.228V50.048H188.508C188.908 50.048 189.212 49.912 189.42 49.64C189.633 49.3627 189.74 48.8827 189.74 48.2Z" fill="#141414"/>
<rect x="77" y="309" width="65" height="65" rx="5" fill="#D65CAB"/>
<path d="M100.125 324.125C100.125 322.401 101.526 321 103.25 321H111.063V327.25C111.063 328.114 111.761 328.812 112.625 328.812H118.875V342.875C118.875 344.599 117.474 346 115.75 346H103.25C101.526 346 100.125 344.599 100.125 342.875V324.125ZM118.875 327.25H112.625V321L118.875 327.25Z" fill="#141414"/>
<path d="M107.751 360H106.439V355.464H104.879V354.456H109.367L109.239 355.464H107.751V360ZM114.164 360H113.012L112.948 357.624C112.943 357.507 112.94 357.347 112.94 357.144C112.94 356.877 112.948 356.619 112.964 356.368C112.98 356.112 112.999 355.845 113.02 355.568L112.396 359.056H111.404L110.724 355.568C110.783 356.181 110.812 356.733 110.812 357.224L110.804 357.648L110.764 360H109.636L109.948 354.456H111.3L111.916 358.04L112.5 354.456H113.852L114.164 360Z" fill="#141414"/>
<rect x="232.5" y="235.5" width="64" height="64" rx="4.5" stroke="#4C4D4C"/>
<path d="M253.286 258.571V272.357H250.714V258.571C250.714 256.878 252.092 255.5 253.786 255.5H275.214C276.908 255.5 278.286 256.878 278.286 258.571V272.357H275.714V258.571V258.071H275.214H253.786H253.286V258.571ZM260.24 266.254L259.887 266.607L260.24 266.961L261.97 268.691C262.301 269.021 262.298 269.551 261.972 269.873C261.639 270.203 261.107 270.2 260.788 269.877L260.786 269.875L258.107 267.197C257.777 266.866 257.78 266.336 258.105 266.014L258.107 266.012L260.786 263.333C261.116 263.003 261.646 263.006 261.968 263.332C262.298 263.665 262.296 264.196 261.972 264.516L261.824 264.663V264.67L260.24 266.254ZM269.074 264.202V264.187L270.899 266.012C271.229 266.342 271.226 266.873 270.901 267.195L270.899 267.197L268.22 269.875C267.89 270.206 267.36 270.203 267.038 269.877C266.708 269.544 266.71 269.012 267.034 268.692L267.036 268.691L268.766 266.961L269.119 266.607L268.766 266.254L267.036 264.524C266.705 264.193 266.708 263.663 267.034 263.341C267.367 263.011 267.899 263.014 268.218 263.337L269.074 264.202ZM247.143 275.714C247.143 275.399 247.399 275.143 247.714 275.143H281.286C281.601 275.143 281.857 275.399 281.857 275.714C281.857 277.804 280.162 279.5 278.072 279.5H250.929C248.839 279.5 247.143 277.804 247.143 275.714Z" stroke="#979999"/>
<rect x="232.5" y="156.5" width="64" height="64" rx="4.5" stroke="#4C4D4C"/>
<path d="M273.489 184.319H273.488L270.126 184.313C270.126 184.313 270.125 184.313 270.125 184.313L270.125 184.313L270.126 183.813C269.61 183.813 269.188 183.391 269.188 182.875V179.512C269.188 179.266 269.288 179.026 269.464 178.85L273.208 175.106C273.682 174.632 273.512 173.829 272.856 173.688L273.489 184.319ZM273.489 184.319C273.868 184.319 274.236 184.166 274.505 183.897L278.249 180.153C278.362 180.04 278.503 180.012 278.615 180.038C278.718 180.062 278.797 180.13 278.824 180.256C278.94 180.795 279 181.358 279 181.938C279 184.994 277.27 187.649 274.737 188.977L274.071 188.311C272.362 186.602 269.979 185.975 267.782 186.433L263.127 181.779C263.212 177.471 266.734 174.001 271.063 174.001C271.643 174.001 272.206 174.061 272.752 174.177L273.489 184.319ZM253.799 174.188L253.802 174.19L259.896 178.872L259.897 178.873C260.119 179.042 260.251 179.306 260.251 179.588V182.758V182.965L260.397 183.112L266.784 189.498L267.04 189.755L267.364 189.591C268.876 188.824 270.773 189.076 272.034 190.336L278.596 196.899C279.133 197.436 279.133 198.309 278.596 198.846L274.846 202.596C274.309 203.133 273.436 203.133 272.899 202.596L266.337 196.033L266.336 196.033C265.071 194.773 264.824 192.876 265.591 191.363L265.755 191.04L265.499 190.783L259.112 184.397L258.966 184.25H258.759H255.589C255.311 184.25 255.042 184.118 254.873 183.896L254.872 183.895L250.186 177.803C250.186 177.803 250.186 177.803 250.186 177.802C249.909 177.438 249.945 176.928 250.265 176.608L252.607 174.266C252.936 173.942 253.445 173.912 253.799 174.188ZM251.021 197.063L251.021 197.063L259.368 188.71L262.434 191.775C262.192 192.943 262.253 194.158 262.619 195.3L255.938 201.98C255.288 202.631 254.401 203 253.48 203C251.559 203 250.001 201.443 250.001 199.522C250.001 198.6 250.37 197.713 251.021 197.063ZM252.841 197.465C252.483 197.822 252.282 198.307 252.282 198.813C252.282 199.318 252.483 199.803 252.841 200.161C253.198 200.518 253.683 200.719 254.189 200.719C254.694 200.719 255.179 200.518 255.536 200.161C255.894 199.803 256.095 199.318 256.095 198.813C256.095 198.307 255.894 197.822 255.536 197.465C255.179 197.107 254.694 196.906 254.189 196.906C253.683 196.906 253.198 197.107 252.841 197.465Z" stroke="#979999"/>
<rect x="309.5" y="81.5" width="64" height="64" rx="4.5" stroke="#4C4D4C"/>
<path d="M339.162 123.034L339.382 122.375H338.688H328.375C326.583 122.375 325.125 120.917 325.125 119.125V102.25C325.125 100.458 326.583 99 328.375 99H354.625C356.417 99 357.875 100.458 357.875 102.25V119.125C357.875 120.917 356.417 122.375 354.625 122.375H344.312H343.618L343.838 123.034L344.465 124.909L344.579 125.25H344.939H349C349.761 125.25 350.375 125.864 350.375 126.625C350.375 127.386 349.761 128 349 128H334C333.239 128 332.625 127.386 332.625 126.625C332.625 125.864 333.239 125.25 334 125.25H338.061H338.421L338.535 124.909L339.162 123.034ZM355.125 102.25V101.75H354.625H328.375H327.875V102.25V119.125V119.625H328.375H354.625H355.125V119.125V102.25Z" stroke="#979999"/>
<rect x="309.5" y="309.5" width="64" height="64" rx="4.5" stroke="#4C4D4C"/>
<path d="M331.688 330.25C331.688 328.458 333.145 327 334.938 327H348.062C349.855 327 351.312 328.458 351.312 330.25V352.75C351.312 354.542 349.855 356 348.062 356H334.938C333.145 356 331.688 354.542 331.688 352.75V330.25ZM343.375 351.312H339.625C338.833 351.312 338.188 351.958 338.188 352.75C338.188 353.542 338.833 354.188 339.625 354.188H343.375C344.167 354.188 344.812 353.542 344.812 352.75C344.812 351.958 344.167 351.312 343.375 351.312Z" stroke="#979999"/>
<rect x="309.5" y="388.5" width="64" height="64" rx="4.5" stroke="#4C4D4C"/>
<path d="M333.091 417.857L332.738 417.966C332.66 417.99 332.6 418.008 332.542 418.031L332.54 418.031L326.915 420.164L326.915 420.164C325.839 420.571 325.123 421.609 325.123 422.761V429.745C325.123 430.847 325.773 431.845 326.787 432.293C326.787 432.293 326.788 432.293 326.788 432.293L332.411 434.765L333.091 417.857ZM333.091 417.857V417.488M333.091 417.857V417.488M333.091 417.488V410.914C333.091 409.763 333.806 408.724 334.895 408.311L334.896 408.311L340.519 406.179L340.343 405.711M333.091 417.488L340.519 406.179M356.262 419.697L350.637 417.564C350.561 417.535 350.485 417.511 350.409 417.488V410.914C350.409 409.549 349.565 408.33 348.294 407.844M356.262 419.697L356.084 420.164L350.46 418.031L350.458 418.031C350.4 418.008 350.34 417.99 350.262 417.966L349.909 417.857V417.488V410.914C349.909 409.757 349.194 408.724 348.116 408.311L348.116 408.311L348.294 407.844M356.262 419.697L356.085 420.164L356.084 420.164M356.262 419.697C357.534 420.183 358.377 421.402 358.377 422.767V429.745L356.084 420.164M348.294 407.844L348.115 408.311M348.294 407.844L342.669 405.711C341.919 405.43 341.093 405.43 340.343 405.711M348.115 408.311L332.591 410.914C332.591 409.554 333.435 408.33 334.718 407.844L340.343 405.711M348.115 408.311L342.493 406.179C342.493 406.179 342.493 406.179 342.493 406.179C341.856 405.94 341.156 405.94 340.519 406.179M348.115 408.311L340.519 406.179M340.343 405.711L340.52 406.178L340.519 406.179M356.084 420.164C357.163 420.577 357.877 421.61 357.877 422.767V429.745C357.877 430.847 357.221 431.851 356.214 432.293L356.213 432.293L350.589 434.765C350.589 434.765 350.589 434.765 350.589 434.765M356.084 420.164L350.589 434.765M350.589 434.765C349.873 435.078 349.064 435.078 348.349 434.765L350.589 434.765ZM346.432 409.614L341.84 407.875L341.84 407.872C341.621 407.792 341.379 407.788 341.154 407.875C341.154 407.875 341.153 407.875 341.152 407.876L336.563 409.614L335.337 410.078L336.56 410.549L341.318 412.377L341.497 412.445L341.677 412.377L346.434 410.549L347.657 410.078L346.432 409.614ZM348.348 434.765L341.698 431.842L341.497 431.753L341.296 431.842L334.653 434.765H348.348ZM347.768 418.301L348.091 418.179V417.833V412.584V411.856L347.412 412.117L342.584 413.968L342.263 414.091V414.435V419.661V420.385L342.94 420.129L347.768 418.301ZM338.464 421.467L333.871 419.727L333.872 419.725C333.653 419.645 333.41 419.641 333.186 419.728L328.594 421.467L327.367 421.932L328.592 422.402L333.35 424.224L333.529 424.292L333.708 424.224L338.465 422.402L339.691 421.932L338.464 421.467ZM334.294 432.171V432.936L334.996 432.628L339.823 430.507L340.122 430.376V430.05V424.431V423.703L339.443 423.964L334.615 425.815L334.294 425.938V426.282V432.171ZM349.813 419.727L349.813 419.727L349.808 419.725C349.589 419.645 349.347 419.641 349.123 419.728C349.122 419.728 349.121 419.728 349.12 419.729L344.531 421.467L343.303 421.932L344.529 422.402L349.287 424.224L349.465 424.292L349.644 424.224L354.408 422.402L355.634 421.932L354.406 421.467L349.813 419.727ZM355.479 430.63L355.479 430.63L355.482 430.629C355.824 430.476 356.059 430.138 356.059 429.745V424.431V423.703L355.38 423.964L350.552 425.815L350.231 425.938V426.282V432.171V432.936L350.932 432.628L355.479 430.63ZM334.652 434.766C333.936 435.078 333.127 435.078 332.412 434.765L334.652 434.766Z" stroke="#979999"/>
<rect x="154.5" y="388.5" width="64" height="64" rx="4.5" stroke="#4C4D4C"/>
<path d="M202.862 420.413L202.859 420.44V420.468C202.859 421.238 202.212 421.848 201.484 421.848H199.609H199.107L199.109 422.35L199.15 431.733C199.15 431.733 199.15 431.734 199.15 431.734C199.15 431.868 199.14 432.006 199.124 432.152L199.121 432.18V432.208V433.157C199.121 434.175 198.296 435 197.278 435H196.34C196.272 435 196.231 435 196.192 434.996L196.152 434.993L196.112 434.995C196.05 435 195.987 435 195.902 435C195.902 435 195.901 435 195.901 435L193.999 434.994H193.997H192.591C191.573 434.994 190.748 434.169 190.748 433.151V431.745V427.996C190.748 426.683 189.686 425.621 188.373 425.621H184.624C183.311 425.621 182.249 426.683 182.249 427.996V431.745V433.151C182.249 434.169 181.425 434.994 180.406 434.994H179H177.131C177.063 434.994 176.992 434.99 176.901 434.984L176.864 434.981L176.826 434.984C176.752 434.99 176.703 434.994 176.657 434.994H175.72C174.701 434.994 173.876 434.169 173.876 433.151V426.59C173.876 426.531 173.877 426.501 173.879 426.481L173.882 426.453V426.426V422.342V421.842H173.382H171.507C170.73 421.842 170.133 421.247 170.133 420.462C170.133 420.067 170.256 419.731 170.561 419.421L185.562 406.346L185.575 406.334L185.587 406.322C185.858 406.051 186.163 406 186.522 406C186.848 406 187.19 406.095 187.428 406.29L202.384 419.437L202.385 419.438C202.771 419.776 202.897 420.095 202.862 420.413Z" stroke="#979999"/>
<defs>
<linearGradient id="paint0_linear_356_933" x1="65" y1="119" x2="109.512" y2="309" gradientUnits="userSpaceOnUse">
<stop stop-color="#33B8A4"/>
<stop offset="1" stop-color="#D65CAB"/>
</linearGradient>
<linearGradient id="paint1_linear_356_933" x1="65" y1="114" x2="191.488" y2="95.2125" gradientUnits="userSpaceOnUse">
<stop stop-color="#33B8A4"/>
<stop offset="1" stop-color="#D65CAB"/>
</linearGradient>
</defs>
</svg>
